<svg viewBox="0 0 300 95" xmlns="http://www.w3.org/2000/svg" style="font-family:Arial,sans-serif;">
<line x1="20" y1="52" x2="280" y2="52" stroke="#ccc" stroke-width="0.8" stroke-dasharray="3,2"/>
<line x1="150" y1="8" x2="150" y2="86" stroke="#c8972a" stroke-width="1.2" stroke-dasharray="3,2"/>
<polygon points="58,48 100,50 150,52 192,41 234,36 274,34 274,46 234,48 192,53 150,60 100,58 58,60" fill="#1a2744" opacity="0.12"/>
<polyline points="58,49 100,51 150,52 192,42 234,37 274,35" fill="none" stroke="#1a2744" stroke-width="2"/>
<circle cx="58" cy="49" r="3" fill="#1a2744"/><circle cx="100" cy="51" r="3" fill="#1a2744"/>
<circle cx="150" cy="52" r="3" fill="#1a2744"/><circle cx="192" cy="42" r="3" fill="#1a2744"/>
<circle cx="234" cy="37" r="3" fill="#1a2744"/><circle cx="274" cy="35" r="3" fill="#1a2744"/>
<text x="58"  y="94" font-size="7.5" text-anchor="middle" fill="#888">-4Q</text>
<text x="100" y="94" font-size="7.5" text-anchor="middle" fill="#888">-2Q</text>
<text x="150" y="94" font-size="7.5" text-anchor="middle" fill="#888">0</text>
<text x="192" y="94" font-size="7.5" text-anchor="middle" fill="#888">+2Q</text>
<text x="234" y="94" font-size="7.5" text-anchor="middle" fill="#888">+4Q</text>
<text x="274" y="94" font-size="7.5" text-anchor="middle" fill="#888">+6Q</text>
<text x="153" y="19" font-size="7" fill="#c8972a">Rule effective</text>
<text x="60"  y="43" font-size="7" fill="#555">Flat pre-period</text>
<text x="158" y="37" font-size="7" fill="#1a2744">Persistent effect</text>
</svg>